<svg width="38" height="38" viewBox="0 0 38 38" fill="none" xmlns="http://www.w3.org/2000/svg">
<path d="M18.6995 36.3991C28.4747 36.3991 36.3991 28.4747 36.3991 18.6995C36.3991 8.92436 28.4747 1 18.6995 1C8.92435 1 1 8.92436 1 18.6995C1 28.4747 8.92435 36.3991 18.6995 36.3991Z" fill="white"/>
<path d="M18.6995 36.3991C28.4747 36.3991 36.3991 28.4747 36.3991 18.6995C36.3991 8.92436 28.4747 1 18.6995 1C8.92435 1 1 8.92436 1 18.6995C1 28.4747 8.92435 36.3991 18.6995 36.3991Z" fill="#00D95F" fill-opacity="0.1"/>
<path d="M18.6995 36.899C28.7508 36.899 36.899 28.7509 36.899 18.6995C36.899 8.64823 28.7508 0.500013 18.6995 0.500013C8.64822 0.500013 0.500013 8.64823 0.500013 18.6995C0.500013 28.7509 8.64822 36.899 18.6995 36.899Z" stroke="#00D95F" stroke-opacity="0.2"/>
<path fill-rule="evenodd" clip-rule="evenodd" d="M18.9975 9H19.0025C24.5163 9 29 13.4862 29 19C29 24.5138 24.5163 29 19.0025 29C16.9688 29 15.0825 28.395 13.5013 27.3475L9.6575 28.5763L10.9038 24.8612C9.705 23.215 9 21.1875 9 19C9 13.485 13.4838 9 18.9975 9ZM22.797 24.9335C23.5709 24.7689 24.5411 24.2052 24.7855 23.5255C25.03 22.8446 25.03 22.2647 24.959 22.1412C24.9017 22.0433 24.7663 21.9791 24.5642 21.8832C24.5115 21.8583 24.4544 21.8312 24.3929 21.8008C24.0952 21.6548 22.6475 20.9502 22.3739 20.8567C22.1054 20.7569 21.8496 20.7918 21.6469 21.0737C21.6084 21.1268 21.5699 21.1801 21.5317 21.233C21.2872 21.5716 21.0514 21.8982 20.8553 22.1063C20.6767 22.2934 20.3854 22.3171 20.141 22.2173C20.1143 22.2064 20.0838 22.1942 20.0496 22.1806C19.6625 22.0267 18.804 21.6853 17.7649 20.7744C16.8884 20.0061 16.2931 19.0496 16.1208 18.7628C15.9517 18.475 16.0976 18.3063 16.2324 18.1503C16.2349 18.1475 16.2374 18.1446 16.2399 18.1417C16.3268 18.0358 16.4112 17.9476 16.496 17.859C16.557 17.7952 16.6181 17.7313 16.6807 17.6603C16.69 17.6498 16.699 17.6395 16.7078 17.6296C16.8406 17.4793 16.9196 17.3898 17.0087 17.2026C17.11 17.0093 17.0379 16.8098 16.9657 16.6626C16.916 16.5595 16.6091 15.8265 16.3457 15.1972C16.233 14.9279 16.1282 14.6776 16.055 14.5038C15.8587 14.0412 15.7092 14.0237 15.4116 14.0112C15.4024 14.0108 15.3932 14.0103 15.3839 14.0099C15.2899 14.0052 15.1862 14 15.0721 14C14.6845 14 14.2805 14.1122 14.0361 14.3579C14.0275 14.3665 14.0186 14.3754 14.0094 14.3847C13.6966 14.6979 13 15.3955 13 16.7861C13 18.1794 14.004 19.5278 14.1898 19.7773C14.1949 19.7842 14.1994 19.7902 14.2032 19.7954C14.2144 19.8098 14.2355 19.8399 14.2662 19.8836C14.6455 20.4245 16.493 23.0589 19.248 24.1828C21.576 25.1331 22.2676 25.0445 22.797 24.9335Z" fill="#00D95F"/>
</svg>
